<svg width="26" height="30" viewBox="0 0 26 30" fill="none" xmlns="http://www.w3.org/2000/svg">
<path d="M25.3125 26.4844C25.3125 27.1316 24.7879 27.6562 24.1406 27.6562H22.9688V28.8281C22.9688 29.4754 22.4441 30 21.7969 30C21.1496 30 20.625 29.4754 20.625 28.8281V27.6562H19.4531C18.8059 27.6562 18.2812 27.1316 18.2812 26.4844C18.2812 25.8371 18.8059 25.3125 19.4531 25.3125H20.625V24.1406C20.625 23.4934 21.1496 22.9688 21.7969 22.9688C22.4441 22.9688 22.9688 23.4934 22.9688 24.1406V25.3125H24.1406C24.7879 25.3125 25.3125 25.8371 25.3125 26.4844ZM25.3125 8.20312V19.4531C25.3125 20.1004 24.7879 20.625 24.1406 20.625C23.4934 20.625 22.9688 20.1004 22.9688 19.4531V9.375H20.625V12.8906C20.625 13.5379 20.1004 14.0625 19.4531 14.0625C18.8059 14.0625 18.2812 13.5379 18.2812 12.8906V9.375H7.03125V12.8906C7.03125 13.5379 6.5066 14.0625 5.85938 14.0625C5.21215 14.0625 4.6875 13.5379 4.6875 12.8906V9.375H2.34375V27.6562H14.7656C15.4129 27.6562 15.9375 28.1809 15.9375 28.8281C15.9375 29.4754 15.4129 30 14.7656 30H1.17188C0.524648 30 0 29.4754 0 28.8281V8.20312C0 7.5559 0.524648 7.03125 1.17188 7.03125H4.74293C5.20846 3.07752 8.57947 0 12.6562 0C16.733 0 20.104 3.07752 20.5696 7.03125H24.1406C24.7879 7.03125 25.3125 7.5559 25.3125 8.20312ZM18.2027 7.03125C17.755 4.37432 15.4385 2.34375 12.6562 2.34375C9.87404 2.34375 7.55748 4.37432 7.10982 7.03125H18.2027Z" fill="#4D4C4C"/>
</svg>
