<svg width="26" height="25" viewBox="0 0 26 25" fill="none" xmlns="http://www.w3.org/2000/svg">
<path d="M21.5269 5.49185H10.4238C10.1185 4.58096 9.261 3.92285 8.25276 3.92285C7.24451 3.92285 6.38698 4.58096 6.08172 5.49185H4.34862C3.94602 5.49185 3.61963 5.81978 3.61963 6.22427C3.61963 6.62876 3.94602 6.95669 4.34862 6.95669H6.08177C6.38703 7.86758 7.24456 8.52568 8.25281 8.52568C9.26105 8.52568 10.1186 7.86758 10.4238 6.95669H21.5269C21.9295 6.95669 22.2559 6.62876 22.2559 6.22427C22.2559 5.81978 21.9295 5.49185 21.5269 5.49185ZM8.25276 7.06084C7.79364 7.06084 7.4201 6.68555 7.4201 6.22427C7.4201 5.76299 7.79364 5.3877 8.25276 5.3877C8.71188 5.3877 9.08541 5.76299 9.08541 6.22427C9.08541 6.68555 8.71188 7.06084 8.25276 7.06084Z" fill="#777777"/>
<path d="M21.5269 11.7682H19.7937C19.4885 10.8573 18.6309 10.1992 17.6227 10.1992C16.6145 10.1992 15.7569 10.8573 15.4517 11.7682H4.34862C3.94602 11.7682 3.61963 12.0961 3.61963 12.5006C3.61963 12.9051 3.94602 13.2331 4.34862 13.2331H15.4517C15.7569 14.1439 16.6145 14.802 17.6227 14.802C18.6309 14.802 19.4885 14.1439 19.7938 13.2331H21.5269C21.9295 13.2331 22.2559 12.9051 22.2559 12.5006C22.2559 12.0961 21.9295 11.7682 21.5269 11.7682ZM17.6227 13.3372C17.1636 13.3372 16.7901 12.9619 16.7901 12.5006C16.7901 12.0394 17.1636 11.6641 17.6227 11.6641C18.0818 11.6641 18.4554 12.0394 18.4554 12.5006C18.4554 12.9619 18.0818 13.3372 17.6227 13.3372Z" fill="#777777"/>
<path d="M21.5269 18.0436H13.5471C13.2419 17.1327 12.3843 16.4746 11.3761 16.4746C10.3679 16.4746 9.51032 17.1327 9.20506 18.0436H4.34862C3.94602 18.0436 3.61963 18.3715 3.61963 18.776C3.61963 19.1805 3.94602 19.5084 4.34862 19.5084H9.20506C9.51032 20.4193 10.3679 21.0774 11.3761 21.0774C12.3843 21.0774 13.2419 20.4193 13.5471 19.5084H21.5269C21.9295 19.5084 22.2559 19.1805 22.2559 18.776C22.2559 18.3715 21.9295 18.0436 21.5269 18.0436ZM11.3761 19.6126C10.917 19.6126 10.5434 19.2374 10.5434 18.7761C10.5434 18.3148 10.917 17.9395 11.3761 17.9395C11.8352 17.9395 12.2088 18.3147 12.2088 18.776C12.2088 19.2373 11.8352 19.6126 11.3761 19.6126Z" fill="#777777"/>
</svg>
