<svg width="31" height="28" viewBox="0 0 31 28" fill="none" xmlns="http://www.w3.org/2000/svg">
<path d="M28.7382 2.69034C27.2092 0.95543 25.0881 0 22.7656 0C19.4992 0 17.4313 1.95082 16.2717 3.5874C15.9708 4.01208 15.7149 4.4379 15.5 4.8386C15.2851 4.4379 15.0292 4.01208 14.7283 3.5874C13.5687 1.95082 11.5008 0 8.23438 0C5.91192 0 3.79078 0.955491 2.26173 2.6904C0.803275 4.34539 0 6.56189 0 8.93157C0 11.5111 1.00708 13.9102 3.16933 16.4818C5.1018 18.7801 7.88193 21.1492 11.1013 23.8925C12.3009 24.9148 13.5414 25.9719 14.8621 27.1275L14.9018 27.1622C15.073 27.3121 15.2865 27.387 15.5 27.387C15.7135 27.387 15.927 27.3121 16.0982 27.1622L16.1379 27.1275C17.4586 25.9719 18.6991 24.9149 19.8989 23.8924C23.1181 21.1493 25.8982 18.7802 27.8307 16.4818C29.9929 13.9102 31 11.5111 31 8.93157C31 6.56189 30.1967 4.34539 28.7382 2.69034ZM18.7207 22.51C17.6865 23.3912 16.6222 24.2981 15.5 25.2737C14.3778 24.2982 13.3135 23.3913 12.2791 22.5099C5.9787 17.141 1.81641 13.5941 1.81641 8.93157C1.81641 7.00436 2.45851 5.21436 3.62446 3.89135C4.80379 2.55332 6.44092 1.81641 8.23438 1.81641C10.7246 1.81641 12.3344 3.35054 13.2462 4.63753C14.0641 5.79179 14.4909 6.95538 14.6365 7.40204C14.7582 7.77591 15.1068 8.02894 15.5 8.02894C15.8932 8.02894 16.2418 7.77591 16.3635 7.40204C16.5091 6.95538 16.9359 5.79179 17.7538 4.63747C18.6656 3.35054 20.2754 1.81641 22.7656 1.81641C24.5591 1.81641 26.1962 2.55332 27.3755 3.89135C28.5415 5.21436 29.1836 7.00436 29.1836 8.93157C29.1836 13.5941 25.0213 17.141 18.7207 22.51Z" fill="#4D4C4C"/>
</svg>
