<svg width="214" height="103" viewBox="0 0 214 103" fill="none" xmlns="http://www.w3.org/2000/svg">
<path d="M0 95.174C0 92.6026 1.927 90.6396 4.52787 90.6396C6.21252 90.6396 7.66072 91.5107 8.28138 92.8651L7.57797 93.2827C7.08144 92.1909 5.91106 91.4749 4.53378 91.4749C2.45309 91.4749 0.886658 93.1097 0.886658 95.174C0.886658 97.2444 2.45309 98.8732 4.53378 98.8732C5.92879 98.8732 7.06371 98.1453 7.63117 97.0654L8.35232 97.5009C7.66664 98.8374 6.21843 99.7085 4.52787 99.7085C1.927 99.7085 0 97.7455 0 95.174Z" fill="black"/>
<path d="M17.1251 90.8302L13.4071 100.317C12.7509 101.987 11.4801 103.115 9.99638 102.99V102.172C11.149 102.274 12.0298 101.409 12.5618 100.138L12.7509 99.6664L8.79053 90.8242H9.71856L13.1943 98.5566L16.1912 90.8242H17.1251V90.8302Z" fill="black"/>
<path d="M25.4883 97.1196C25.4883 98.4381 24.6253 99.518 22.8401 99.518H18.6729V90.8311H22.5091C24.1938 90.8311 25.0745 91.8394 25.0745 93.1102C25.0745 93.9634 24.7139 94.6734 23.9751 95.0373C24.974 95.3655 25.4883 96.1291 25.4883 97.1196ZM19.5359 91.6842V94.6913H22.515C23.6145 94.6913 24.1997 94.1364 24.1997 93.1639C24.1997 92.2451 23.5968 91.6842 22.515 91.6842H19.5359ZM24.6312 97.0897C24.6312 96.1351 23.9751 95.5444 22.8401 95.5444H19.5359V98.6708H22.8401C23.9928 98.6708 24.6312 98.0801 24.6312 97.0897Z" fill="black"/>
<path d="M35.5249 95.2098C35.5249 95.347 35.5072 95.4902 35.5072 95.6274H27.7105C27.9174 97.5903 29.3951 98.8791 31.3576 98.8791C32.7703 98.8791 33.8343 98.2168 34.3368 97.298L35.0934 97.7514C34.39 98.9328 33.0423 99.7144 31.3399 99.7144C28.6917 99.7144 26.812 97.8051 26.812 95.1799C26.812 92.6263 28.6385 90.6455 31.2689 90.6455C33.8875 90.6396 35.5249 92.8292 35.5249 95.2098ZM27.7105 94.7742H34.6323C34.4432 92.6562 32.9654 91.4748 31.2749 91.4748C29.3124 91.4748 27.8819 92.8471 27.7105 94.7742Z" fill="black"/>
<path d="M44.6465 90.8311V99.518H43.7657V95.5922H38.3926V99.518H37.5295V90.8311H38.3926V94.7569H43.7657V90.8311H44.6465Z" fill="black"/>
<path d="M54.4049 90.8311V99.518H53.5242V92.3405L48.0506 99.518H47.2939V90.8311H48.157V98.0085L53.6483 90.8311H54.4049Z" fill="black"/>
<path d="M66.0796 95.1741C66.0796 97.7456 64.0817 99.7086 61.6227 99.7086C59.9498 99.7086 58.6258 98.8375 57.9223 97.501V102.99H57.0593V90.8247H57.9223V92.8413C58.6258 91.5049 59.9557 90.6338 61.6227 90.6338C64.0817 90.6398 66.0796 92.6027 66.0796 95.1741ZM65.2166 95.1741C65.2166 93.1038 63.6147 91.475 61.5695 91.475C59.5183 91.475 57.9223 93.1098 57.9223 95.1741C57.9223 97.2445 59.5242 98.8733 61.5695 98.8733C63.6147 98.8792 65.2166 97.2445 65.2166 95.1741Z" fill="black"/>
<path d="M74.4079 96.863C74.4079 98.462 73.1016 99.524 71.5647 99.524H68.1541V90.837H69.0171V94.208H71.5647C73.0957 94.202 74.4079 95.264 74.4079 96.863ZM73.5272 96.863C73.5272 95.7533 72.6464 95.0552 71.5647 95.0552H69.0171V98.6708H71.5647C72.6524 98.6708 73.5272 97.9548 73.5272 96.863ZM76.595 90.8311V99.518H75.732V90.8311H76.595Z" fill="black"/>
<path d="M90.9469 90.8311V99.518H90.0662V92.3405L84.5925 99.518H83.8359V90.8311H84.699V98.0085L90.1903 90.8311H90.9469Z" fill="black"/>
<path d="M105.305 99.518H104.424V91.6842H99.0507V99.518H98.1877V90.8311H105.299V99.518H105.305Z" fill="black"/>
<path d="M107.369 95.174C107.369 92.6026 109.385 90.6396 111.897 90.6396C114.391 90.6396 116.407 92.6026 116.407 95.174C116.407 97.7455 114.391 99.7085 111.897 99.7085C109.385 99.7085 107.369 97.7455 107.369 95.174ZM115.526 95.174C115.526 93.1037 113.942 91.4749 111.897 91.4749C109.846 91.4749 108.25 93.1097 108.25 95.174C108.25 97.2444 109.852 98.8732 111.897 98.8732C113.942 98.8791 115.526 97.2444 115.526 95.174Z" fill="black"/>
<path d="M125.113 99.518H124.25V91.6842H119.911V95.8726C119.911 98.9154 118.634 99.6433 117.021 99.5239V98.7066C118.345 98.8259 119.054 98.1159 119.054 95.8726V90.8311H125.113V99.518Z" fill="black"/>
<path d="M134.873 90.8311V99.518H133.992V92.3405L128.519 99.518H127.762V90.8311H128.625V98.0085L134.116 90.8311H134.873Z" fill="black"/>
<path d="M142.912 91.6842H138.384V99.518H137.521V90.8311H142.912V91.6842Z" fill="black"/>
<path d="M153.463 95.1741C153.463 97.7456 151.465 99.7086 149.006 99.7086C147.339 99.7086 146.009 98.8375 145.306 97.501V102.99H144.443V90.8247H145.306V92.8413C146.009 91.5049 147.339 90.6338 149.006 90.6338C151.471 90.6398 153.463 92.6027 153.463 95.1741ZM152.606 95.1741C152.606 93.1038 151.004 91.475 148.959 91.475C146.908 91.475 145.312 93.1098 145.312 95.1741C145.312 97.2445 146.914 98.8733 148.959 98.8733C151.004 98.8792 152.606 97.2445 152.606 95.1741Z" fill="black"/>
<path d="M163.996 90.8306V99.5175H163.115V97.5546C162.394 98.8553 161.064 99.7085 159.415 99.7085C156.968 99.7085 154.958 97.7455 154.958 95.174C154.958 92.6026 156.974 90.6396 159.415 90.6396C161.07 90.6396 162.394 91.4928 163.115 92.7935V90.8306H163.996ZM163.121 95.174C163.121 93.1037 161.537 91.4749 159.492 91.4749C157.441 91.4749 155.845 93.1097 155.845 95.174C155.845 97.2444 157.447 98.8732 159.492 98.8732C161.537 98.8791 163.121 97.2444 163.121 95.174Z" fill="black"/>
<path d="M171.52 99.7087V102.99H170.657V99.7087C167.885 99.5357 166.059 97.6264 166.059 95.1743C166.059 92.7221 167.885 90.8129 170.657 90.6399V87.3584H171.52V90.6399C174.293 90.8129 176.119 92.7221 176.119 95.1743C176.113 97.6264 174.293 99.5357 171.52 99.7087ZM170.657 98.8615V91.4931C168.37 91.6661 166.939 93.1935 166.939 95.1743C166.939 97.1551 168.37 98.6884 170.657 98.8615ZM175.238 95.1743C175.238 93.1935 173.808 91.6661 171.52 91.4931V98.8615C173.808 98.6884 175.238 97.1551 175.238 95.1743Z" fill="black"/>
<path d="M185.287 90.8311V99.518H184.406V92.3405L178.933 99.518H178.176V90.8311H179.039V98.0085L184.531 90.8311H185.287Z" fill="black"/>
<path d="M193.895 99.5172H193.032V96.1283H191.17L188.468 99.5172H187.351L190.106 96.1104C188.746 95.9553 187.647 94.947 187.647 93.4852C187.647 91.8862 188.953 90.8242 190.49 90.8242H193.9V99.5172H193.895ZM193.037 95.299V91.6834H190.49C189.408 91.6834 188.527 92.3934 188.527 93.4912C188.527 94.6009 189.408 95.299 190.49 95.299H193.037Z" fill="black"/>
<path d="M26.8847 33.9004H20.1638V27.1167H6.72211V33.9004H0.0249023V13.5732C0.0249023 11.6997 0.373653 9.93968 1.07707 8.29297C1.78048 6.64627 2.73807 5.20839 3.94392 3.97933C5.15569 2.75027 6.57433 1.78372 8.20578 1.07372C9.83723 0.363731 11.581 0.0117188 13.437 0.0117188C15.2931 0.0117188 17.0369 0.363731 18.6683 1.07372C20.2998 1.78372 21.7243 2.75027 22.942 3.97933C24.1597 5.20839 25.1173 6.64627 25.8207 8.29297C26.5241 9.93968 26.8728 11.6997 26.8728 13.5732V33.9004H26.8847ZM20.1638 20.3569V13.5732C20.1638 12.6424 19.9865 11.7654 19.6377 10.9361C19.289 10.1067 18.8043 9.38481 18.1954 8.77028C17.5866 8.15575 16.8714 7.67248 16.0497 7.3145C15.2281 6.96249 14.3592 6.7835 13.437 6.7835C12.5149 6.7835 11.646 6.96249 10.8244 7.3145C10.0027 7.66651 9.2875 8.15575 8.67866 8.77028C8.06982 9.38481 7.59103 10.1067 7.23637 10.9361C6.88171 11.7654 6.71029 12.6424 6.71029 13.5732V20.3569H20.1638Z" fill="#4BC8F2"/>
<path d="M54.0921 33.9005H30.8203V0.00585938H37.5412V27.1168H54.0921V33.9005Z" fill="#4BC8F2"/>
<path d="M80.8386 33.9005H57.821V0.00585938H80.8386V6.78956H64.5419V13.5733H75.5719V20.357H64.5419V27.1168H80.8386V33.9005Z" fill="#4BC8F2"/>
<path d="M111.636 33.9006H103.485L97.0242 22.9584L90.5398 33.9006H82.4358L92.7387 16.9503L82.4358 0H90.5398L97.0242 10.9422L103.485 0H111.636L101.333 16.9503L111.636 33.9006Z" fill="#4BC8F2"/>
<path d="M8.05209 79.1917H0.0249023V38.6924H16.0852C17.557 38.6924 18.9757 38.8833 20.3411 39.2711C21.7007 39.6589 22.9775 40.2019 24.1597 40.9119C25.3419 41.6159 26.4236 42.4631 27.4048 43.4535C28.3861 44.4439 29.2254 45.5417 29.9229 46.7409C30.6204 47.9461 31.1643 49.2349 31.5485 50.6071C31.9327 51.9794 32.1218 53.4113 32.1218 54.8969C32.1218 57.1164 31.7022 59.2105 30.8628 61.1794C30.0234 63.1483 28.8767 64.8666 27.4226 66.3343C25.9685 67.802 24.2661 68.9595 22.3154 69.8067C20.3648 70.6539 18.29 71.0775 16.0911 71.0775H8.06391V79.1917H8.05209ZM8.05209 46.8006V63.0111H16.0793C17.1787 63.0111 18.2132 62.7963 19.1826 62.3727C20.152 61.9491 21.0032 61.3704 21.7302 60.6365C22.4573 59.9026 23.0307 59.0435 23.4503 58.0531C23.87 57.0627 24.0828 56.0126 24.0828 54.9029C24.0828 53.7931 23.87 52.743 23.4503 51.7526C23.0307 50.7622 22.4573 49.9031 21.7302 49.1692C21.0032 48.4354 20.152 47.8566 19.1826 47.433C18.2132 47.0094 17.1787 46.7946 16.0793 46.7946H8.05209V46.8006Z" fill="#F7793F"/>
<path d="M44.8473 79.1917H36.8201V38.6924H52.8804C54.3522 38.6924 55.7709 38.8833 57.1363 39.2711C58.4959 39.6589 59.7727 40.2019 60.9549 40.9119C62.1371 41.6159 63.2188 42.4631 64.2 43.4535C65.1813 44.4439 66.0206 45.5417 66.7181 46.7409C67.4156 47.9461 67.9595 49.2349 68.3437 50.6071C68.7279 51.9794 68.917 53.4113 68.917 54.8969C68.917 56.293 68.7456 57.6474 68.3969 58.9659C68.054 60.2845 67.5575 61.5374 66.9132 62.7247C66.2689 63.912 65.4827 65.0038 64.5488 66.0002C63.6148 66.9966 62.5686 67.8617 61.4159 68.5956L65.867 79.1858H57.3314L53.8321 71.0239L44.8532 71.0775V79.1917H44.8473ZM44.8473 46.8006V63.0111H52.8745C53.9739 63.0111 55.0084 62.7963 55.9778 62.3727C56.9472 61.9491 57.7984 61.3704 58.5254 60.6365C59.2525 59.9026 59.8259 59.0435 60.2455 58.0531C60.6652 57.0627 60.878 56.0126 60.878 54.9029C60.878 53.7931 60.6652 52.743 60.2455 51.7526C59.8259 50.7622 59.2525 49.9031 58.5254 49.1692C57.7984 48.4354 56.9472 47.8566 55.9778 47.433C55.0084 47.0094 53.9739 46.7946 52.8745 46.7946H44.8473V46.8006Z" fill="#F7793F"/>
<path d="M112.978 59.3636C112.978 61.2609 112.736 63.0866 112.245 64.8467C111.755 66.6068 111.069 68.2475 110.188 69.7868C109.302 71.3201 108.238 72.7222 106.984 73.9871C105.731 75.2519 104.348 76.3378 102.841 77.2387C101.328 78.1396 99.6961 78.8377 97.9464 79.3329C96.1967 79.8281 94.382 80.0727 92.5023 80.0727C90.6226 80.0727 88.8138 79.8281 87.0701 79.3329C85.3263 78.8377 83.7008 78.1456 82.1757 77.2387C80.6566 76.3378 79.2675 75.2519 78.0144 73.9871C76.7612 72.7222 75.6854 71.3201 74.7929 69.7868C73.9003 68.2535 73.2087 66.6068 72.7181 64.8467C72.2275 63.0866 71.9851 61.2609 71.9851 59.3636C71.9851 57.4663 72.2275 55.6347 72.7181 53.8687C73.2087 52.1026 73.8944 50.4559 74.7929 48.9285C75.6854 47.4011 76.7612 46.011 78.0144 44.7461C79.2675 43.4813 80.6566 42.4014 82.1757 41.5124C83.6949 40.6174 85.3263 39.9254 87.0701 39.4361C88.8138 38.9409 90.6226 38.6963 92.5023 38.6963C94.382 38.6963 96.1967 38.9409 97.9464 39.4361C99.6961 39.9313 101.328 40.6234 102.841 41.5124C104.354 42.4073 105.731 43.4813 106.984 44.7461C108.238 46.011 109.307 47.4071 110.188 48.9285C111.075 50.4559 111.761 52.1026 112.245 53.8687C112.73 55.6347 112.978 57.4663 112.978 59.3636ZM105.099 59.3636C105.099 57.6155 104.768 55.9628 104.106 54.4116C103.444 52.8603 102.545 51.5119 101.41 50.3664C100.275 49.2209 98.9395 48.314 97.4026 47.6458C95.8657 46.9775 94.2284 46.6434 92.4964 46.6434C90.7468 46.6434 89.1035 46.9775 87.5784 47.6458C86.0475 48.314 84.7116 49.2209 83.5708 50.3664C82.4299 51.5119 81.5255 52.8603 80.8635 54.4116C80.2015 55.9628 79.8704 57.6155 79.8704 59.3636C79.8704 61.1118 80.2015 62.7525 80.8635 64.2858C81.5255 65.8192 82.4299 67.1616 83.5708 68.3191C84.7116 69.4706 86.0475 70.3834 87.5784 71.0517C89.1094 71.7199 90.7468 72.054 92.4964 72.054C94.2284 72.054 95.8657 71.7199 97.4026 71.0517C98.9395 70.3834 100.275 69.4706 101.41 68.3191C102.545 67.1676 103.444 65.8252 104.106 64.2858C104.768 62.7525 105.099 61.1118 105.099 59.3636Z" fill="#F7793F"/>
<path d="M156.448 79.1897H148.557V50.6707C148.557 50.1158 148.45 49.5968 148.237 49.1135C148.025 48.6302 147.741 48.2066 147.38 47.8486C147.02 47.4847 146.606 47.2043 146.127 47.0014C145.648 46.7986 145.134 46.6971 144.584 46.6971C144.035 46.6971 143.52 46.7986 143.042 47.0014C142.563 47.2043 142.143 47.4906 141.789 47.8486C141.428 48.2126 141.15 48.6362 140.949 49.1135C140.748 49.5968 140.648 50.1158 140.648 50.6707V79.1897H132.727V50.6707C132.727 50.1158 132.626 49.5968 132.425 49.1135C132.224 48.6302 131.941 48.2066 131.586 47.8486C131.226 47.4847 130.812 47.2043 130.333 47.0014C129.854 46.7986 129.34 46.6971 128.79 46.6971C128.24 46.6971 127.72 46.7986 127.247 47.0014C126.769 47.2043 126.349 47.4906 125.994 47.8486C125.634 48.2126 125.356 48.6362 125.155 49.1135C124.954 49.5968 124.853 50.1158 124.853 50.6707V79.1897H116.933V50.6707C116.933 49.018 117.24 47.4608 117.855 46.005C118.469 44.5493 119.315 43.2784 120.391 42.1866C121.466 41.1007 122.725 40.2475 124.174 39.627C125.616 39.0065 127.159 38.6963 128.796 38.6963C130.268 38.6963 131.687 38.9588 133.046 39.4898C134.406 40.0208 135.629 40.7845 136.717 41.7869C137.804 40.7845 139.022 40.0208 140.376 39.4898C141.729 38.9588 143.142 38.6963 144.614 38.6963C146.251 38.6963 147.794 39.0065 149.236 39.627C150.679 40.2475 151.938 41.1007 153.019 42.1866C154.095 43.2725 154.941 44.5433 155.555 46.005C156.17 47.4608 156.477 49.018 156.477 50.6707V79.1897H156.448Z" fill="#4BC8F2"/>
<path d="M201.407 59.3694C201.407 61.2667 201.165 63.0924 200.674 64.8524C200.184 66.6125 199.498 68.2532 198.617 69.7866C197.731 71.3199 196.667 72.722 195.413 73.9869C194.16 75.2517 192.777 76.3316 191.27 77.2385C189.757 78.1394 188.131 78.8375 186.381 79.3327C184.632 79.8279 182.817 80.0725 180.937 80.0725C179.058 80.0725 177.249 79.8279 175.505 79.3327C173.767 78.8375 172.136 78.1454 170.617 77.2385C169.098 76.3376 167.708 75.2517 166.455 73.9869C165.202 72.722 164.126 71.3259 163.234 69.7866C162.341 68.2532 161.65 66.6065 161.159 64.8524C160.668 63.0983 160.426 61.2667 160.426 59.3694C160.426 57.4721 160.668 55.6404 161.159 53.8744C161.65 52.1084 162.335 50.4617 163.234 48.9402C164.126 47.4129 165.202 46.0227 166.455 44.7578C167.708 43.493 169.092 42.4131 170.617 41.5241C172.136 40.6292 173.767 39.9371 175.505 39.4478C177.243 38.9526 179.058 38.708 180.937 38.708C182.817 38.708 184.632 38.9526 186.381 39.4478C188.131 39.943 189.763 40.6351 191.27 41.5241C192.777 42.4191 194.16 43.493 195.413 44.7578C196.667 46.0227 197.737 47.4188 198.617 48.9402C199.504 50.4676 200.19 52.1084 200.674 53.8744C201.159 55.6404 201.407 57.4721 201.407 59.3694ZM193.528 59.3694C193.528 57.6212 193.197 55.9686 192.535 54.4173C191.873 52.8661 190.974 51.5177 189.839 50.3722C188.704 49.2266 187.369 48.3197 185.832 47.6515C184.295 46.9833 182.657 46.6492 180.926 46.6492C179.176 46.6492 177.533 46.9833 176.008 47.6515C174.477 48.3197 173.141 49.2266 172 50.3722C170.859 51.5177 169.955 52.8661 169.293 54.4173C168.631 55.9686 168.3 57.6212 168.3 59.3694C168.3 61.1175 168.631 62.7582 169.293 64.2916C169.955 65.8249 170.859 67.1674 172 68.3248C173.141 69.4763 174.477 70.3892 176.008 71.0574C177.539 71.7256 179.176 72.0597 180.926 72.0597C182.657 72.0597 184.295 71.7256 185.832 71.0574C187.369 70.3892 188.704 69.4763 189.839 68.3248C190.974 67.1733 191.873 65.8309 192.535 64.2916C193.197 62.7582 193.528 61.1175 193.528 59.3694Z" fill="#4BC8F2"/>
<path d="M206.213 102.238C210.437 102.238 213.862 98.7812 213.862 94.5173C213.862 90.2534 210.437 86.7969 206.213 86.7969C201.988 86.7969 198.564 90.2534 198.564 94.5173C198.564 98.7812 201.988 102.238 206.213 102.238Z" fill="#F7793F"/>
</svg>
