<svg width="34" height="34" viewBox="0 0 34 34" fill="none" xmlns="http://www.w3.org/2000/svg">
<circle cx="17" cy="17" r="16.5" stroke="#4D4C4C"/>
<path d="M18.5474 9.59732C16.6065 9.32648 15.4846 9.81585 15.4846 9.81585L14.8507 10.407L13.0647 11.2544C13.0647 11.2544 12.5922 11.4277 11.8829 12.3578L10.1797 14.9273L12.3875 16.7875L13.1446 15.9839C13.1446 15.9839 13.2701 18.538 13.2701 24.1827C13.2701 24.1827 15.2458 24.42 17.1119 24.388H17.1966C19.0624 24.4198 21.0379 24.1827 21.0379 24.1827C21.0379 18.538 21.1642 15.9839 21.1642 15.9839L21.9205 16.7875L24.1283 14.9273L22.4247 12.3575C21.7152 11.4274 21.2429 11.2542 21.2429 11.2542L19.2683 10.2318L18.5474 9.59732Z" stroke="#4D4C4C" stroke-width="1.5" stroke-miterlimit="10" stroke-linecap="round" stroke-linejoin="round"/>
<path d="M12.855 13.873C12.855 13.873 12.8606 14.509 13.1447 15.9838" stroke="#4D4C4C" stroke-width="1.5" stroke-miterlimit="10" stroke-linecap="round" stroke-linejoin="round"/>
<path d="M21.4633 13.873C21.4633 13.873 21.4574 14.509 21.1733 15.9838" stroke="#4D4C4C" stroke-width="1.5" stroke-miterlimit="10" stroke-linecap="round" stroke-linejoin="round"/>
<path d="M16.8567 12.2365C16.8567 12.2365 16.9574 11.6627 17.4628 11.4805C17.255 12.5979 17.4628 15.7324 17.4628 15.7324C17.2069 16.0094 16.8455 15.9729 16.8455 15.9729V12.3478L16.8567 12.2365Z" stroke="#4D4C4C" stroke-width="1.5" stroke-miterlimit="10" stroke-linecap="round" stroke-linejoin="round"/>
<path d="M17.5325 11.4269C17.9763 11.2447 18.8738 10.1945 18.5475 9.59766L19.2686 10.2322C19.2686 10.2322 19.3775 11.8752 18.6116 12.6405C18.6116 12.6405 18.3025 12.5873 18.1743 11.8094C18.1748 11.8094 17.7983 11.3178 17.5325 11.4269Z" stroke="#4D4C4C" stroke-width="1.5" stroke-miterlimit="10" stroke-linecap="round" stroke-linejoin="round"/>
<path d="M16.6438 11.3688C16.1074 10.8324 15.3652 12.5061 15.3652 12.5061C14.7639 11.5001 14.8505 10.4066 14.8505 10.4066L15.4845 9.81543C15.4845 9.81543 15.6602 10.6035 16.3597 11.1716C16.36 11.1719 16.5352 11.2596 16.6438 11.3688Z" stroke="#4D4C4C" stroke-width="1.5" stroke-miterlimit="10" stroke-linecap="round" stroke-linejoin="round"/>
<path d="M18.5476 9.59743C18.8733 10.1942 17.9764 11.2444 17.5326 11.4267C17.0696 11.6233 16.8576 12.2367 16.8576 12.2367L16.8463 12.3121L16.868 11.9934C16.9251 11.481 16.6075 11.3353 16.6075 11.3353L16.6447 11.3693C16.5358 11.2602 16.3606 11.1722 16.3606 11.1722C15.6611 10.6037 15.4854 9.81596 15.4854 9.81596C15.4854 9.81596 16.6067 9.32631 18.5476 9.59743Z" stroke="#4D4C4C" stroke-width="1.5" stroke-miterlimit="10" stroke-linecap="round" stroke-linejoin="round"/>
<path d="M18.5359 10.2757C18.6304 10.0319 18.6534 9.79082 18.5477 9.59732C16.6068 9.32648 15.4849 9.81585 15.4849 9.81585C15.4849 9.81585 15.5406 10.067 15.7152 10.3879C15.7155 10.3879 16.7899 10.0231 18.5359 10.2757Z" stroke="#4D4C4C" stroke-width="1.5" stroke-miterlimit="10" stroke-linecap="round" stroke-linejoin="round"/>
</svg>
