<svg width="34" height="34" viewBox="0 0 34 34" fill="none" xmlns="http://www.w3.org/2000/svg">
<circle cx="17" cy="17" r="16.5" stroke="#4D4C4C"/>
<path d="M8.9828 13.6625C8.9929 13.6349 8.99715 13.6055 8.99526 13.5762C8.99338 13.5469 8.98541 13.5183 8.97187 13.4922C8.95832 13.4661 8.9395 13.4431 8.91659 13.4247C8.89368 13.4063 8.86719 13.3929 8.8388 13.3852C8.78603 13.3725 8.73041 13.38 8.68283 13.4061C8.63526 13.4322 8.59914 13.4752 8.58156 13.5265C8.55054 13.613 8.52598 13.7017 8.50808 13.7918C8.46439 14.0127 8.47042 14.2405 8.52574 14.4587C8.58106 14.6769 8.68427 14.8801 8.8279 15.0534C9.06291 15.3404 9.3939 15.5326 9.75966 15.5945C9.6712 15.9888 9.69767 16.5639 10.1952 16.9862C10.4828 17.2281 10.8457 17.3622 11.2214 17.3654C11.5443 17.3691 11.8633 17.2937 12.1504 17.146C12.3999 17.4052 13.0187 17.9107 14.0499 17.9106C14.3218 17.9091 14.5927 17.8767 14.8574 17.814C14.9274 17.8574 14.9992 17.9005 15.0752 17.9429C15.2901 18.0655 15.4744 18.2353 15.6142 18.4394C15.754 18.6435 15.8456 18.8767 15.8823 19.1214C15.978 19.7505 16.0355 20.7911 15.7667 22.1716C15.7614 22.1958 15.2229 24.6037 13.6662 25.371C13.6163 25.3957 13.5781 25.4389 13.5598 25.4915C13.5415 25.544 13.5446 25.6016 13.5684 25.6519C13.5868 25.6888 13.6153 25.7198 13.6506 25.7412C13.6858 25.7626 13.7264 25.7735 13.7677 25.7727H14.8689C14.9226 25.7736 14.9748 25.7546 15.0154 25.7194C15.056 25.6841 15.0821 25.6351 15.0887 25.5818C15.0916 25.5524 15.0883 25.5226 15.0791 25.4946C15.0698 25.4665 15.0547 25.4407 15.0349 25.4188C15.015 25.3969 14.9908 25.3794 14.9638 25.3674C14.9368 25.3554 14.9075 25.3492 14.878 25.3492H14.464C15.7275 24.288 16.1607 22.3542 16.1818 22.257C16.463 20.8125 16.402 19.7199 16.3013 19.0577C16.2547 18.7492 16.1388 18.4554 15.9623 18.1982C15.7857 17.9411 15.5531 17.7274 15.282 17.5731C13.9478 16.8279 13.6607 15.9303 13.6165 15.4199C13.8608 15.5185 14.118 15.5814 14.3803 15.6068C14.8029 16.8976 16.0727 17.1309 16.1285 17.1405C16.1589 17.1457 16.1901 17.1443 16.2198 17.1362C16.2496 17.1281 16.2772 17.1136 16.3008 17.0938C16.3244 17.0739 16.3434 17.0491 16.3564 17.0211C16.3694 16.9931 16.3761 16.9627 16.3761 16.9318C16.3761 16.1779 16.3434 15.3744 16.3168 14.8446C16.8424 14.9152 18.0292 14.9974 18.9347 14.4868C19.0698 14.8129 19.3216 15.0769 19.6409 15.2273C19.4033 15.6415 18.9708 16.1753 18.2622 16.3481C18.2463 16.118 18.2256 15.7399 18.2208 15.3217C18.2204 15.2658 18.1979 15.2124 18.1582 15.1731C18.1185 15.1337 18.0649 15.1116 18.0091 15.1116H18.0066C17.979 15.1116 17.9516 15.1171 17.926 15.1278C17.9005 15.1384 17.8773 15.154 17.8578 15.1737C17.8384 15.1933 17.823 15.2167 17.8126 15.2423C17.8022 15.2679 17.797 15.2954 17.7972 15.323C17.8051 16.0198 17.8555 16.5934 17.8578 16.6174C17.8625 16.6701 17.8867 16.7191 17.9258 16.7548C17.9648 16.7905 18.0158 16.8103 18.0687 16.8103C18.0776 16.8103 18.0864 16.8098 18.0952 16.8087C19.1569 16.6752 19.7542 15.9079 20.0477 15.3683C20.1853 15.3991 20.3252 15.4185 20.466 15.4261C20.4977 15.4279 20.5279 15.4282 20.5585 15.4288C20.5532 15.4518 20.5479 15.4749 20.5417 15.4976C20.4327 15.8909 20.1943 16.2359 19.865 16.477C19.5656 16.7 19.2833 16.9452 19.0207 17.2105C18.4612 17.7872 18.216 18.3742 18.2256 19.1139C18.2601 21.7722 19.0328 23.4275 19.675 24.348C19.9288 24.7165 20.2266 25.0528 20.5618 25.3492H20.3594C20.3057 25.3483 20.2535 25.3673 20.2129 25.4026C20.1723 25.4378 20.1462 25.4868 20.1396 25.5402C20.1367 25.5696 20.14 25.5993 20.1492 25.6274C20.1585 25.6554 20.1735 25.6813 20.1934 25.7032C20.2132 25.7251 20.2375 25.7426 20.2645 25.7546C20.2915 25.7665 20.3208 25.7727 20.3503 25.7727H21.2018C21.2426 25.7735 21.2828 25.7629 21.318 25.7421C21.3531 25.7212 21.3817 25.691 21.4005 25.6548C21.425 25.6052 21.4291 25.5481 21.412 25.4955C21.395 25.443 21.3581 25.3992 21.3092 25.3734C21.3027 25.37 20.6536 25.0204 20.0054 24.0812C19.4047 23.211 18.6818 21.6418 18.6491 19.1084C18.6411 18.4897 18.8494 17.9953 19.3246 17.5054C19.5713 17.2564 19.8363 17.0263 20.1174 16.8172C20.5235 16.519 20.8171 16.0926 20.9509 15.607C20.9697 15.5365 20.9847 15.4648 20.9966 15.3925C21.2713 15.3389 21.5289 15.2192 21.7469 15.0437C21.965 14.8682 22.137 14.6422 22.2481 14.3852C22.6275 14.49 23.4722 14.6634 24.2798 14.4212C24.3332 14.4048 24.378 14.3679 24.4043 14.3185C24.4305 14.2692 24.4363 14.2115 24.4202 14.158C24.4042 14.1045 24.3676 14.0595 24.3185 14.0328C24.2694 14.0061 24.2117 14 24.1581 14.0156C23.2325 14.2931 22.1982 13.9275 22.188 13.9239L22.1867 13.9235C22.1862 13.9235 22.1859 13.9231 22.1854 13.9229C21.8289 13.7948 21.5126 13.5745 21.2688 13.2845C21.2349 13.2401 21.1847 13.2108 21.1293 13.2032C21.0739 13.1956 21.0178 13.2102 20.9731 13.2439C20.9285 13.2775 20.8989 13.3275 20.8909 13.3828C20.8829 13.4382 20.8972 13.4944 20.9305 13.5393C21.1778 13.8403 21.4908 14.0806 21.8456 14.2415C21.7132 14.5251 21.3499 15.053 20.4903 15.0031C19.5956 14.951 19.3545 14.4578 19.2915 14.2393C19.5264 14.0359 20.0266 13.4964 19.8473 12.7077C19.8342 12.6538 19.8003 12.6071 19.753 12.5779C19.7057 12.5487 19.6489 12.5392 19.5947 12.5515C19.5405 12.5638 19.4933 12.5969 19.4633 12.6437C19.4333 12.6905 19.4229 12.7472 19.4344 12.8016C19.5962 13.5136 18.9663 13.9603 18.9388 13.9794C18.9379 13.98 18.9373 13.9808 18.9364 13.9815C18.9356 13.9821 18.9335 13.9832 18.9321 13.9842C17.9439 14.7219 16.2503 14.4086 16.1405 14.3873C15.0676 14.1017 14.953 13.4184 14.9479 13.3843C14.9445 13.3567 14.9356 13.3301 14.9218 13.306C14.908 13.2818 14.8896 13.2606 14.8676 13.2436C14.8456 13.2265 14.8205 13.214 14.7936 13.2067C14.7668 13.1993 14.7388 13.1974 14.7112 13.2009C14.6836 13.2044 14.657 13.2133 14.6328 13.2271C14.6087 13.2408 14.5875 13.2593 14.5705 13.2812C14.5361 13.3256 14.5207 13.3819 14.5278 13.4376C14.5326 13.4767 14.6558 14.3644 15.8879 14.7544C15.9119 15.2127 15.9438 15.9359 15.951 16.6501C15.6333 16.5326 15.095 16.245 14.8302 15.6014C14.9401 15.5887 15.0488 15.5668 15.1551 15.536C15.2073 15.5215 15.2523 15.4881 15.2813 15.4422C15.3102 15.3964 15.321 15.3414 15.3116 15.2879C15.3057 15.2591 15.2939 15.2319 15.277 15.2079C15.26 15.1839 15.2382 15.1637 15.213 15.1486C15.1878 15.1335 15.1597 15.1238 15.1305 15.1201C15.1013 15.1164 15.0717 15.1189 15.0436 15.1273C14.283 15.3542 13.5229 14.9085 13.5157 14.9042C13.5146 14.9036 13.5135 14.9033 13.5124 14.9027C13.5037 14.8979 13.4948 14.8937 13.4856 14.8902C13.4812 14.8885 13.477 14.8861 13.4726 14.8846C13.4639 14.8821 13.4551 14.8801 13.4461 14.8786C13.4408 14.8776 13.4355 14.8758 13.4296 14.8752H13.4284C13.3995 14.8722 13.3703 14.8752 13.3426 14.8841H13.342C11.8991 15.346 11.405 14.4807 11.3854 14.445C11.369 14.4141 11.3453 14.3877 11.3163 14.3682C11.2872 14.3487 11.2538 14.3367 11.219 14.3333C10.6306 14.275 10.2119 14.0701 9.97455 13.7244C9.58241 13.1535 9.79354 12.3625 9.79561 12.3551C9.80582 12.3186 9.80607 12.2801 9.79635 12.2435C9.58787 11.4597 9.84241 11.0779 10.0721 10.8993C10.0996 11.2083 10.2261 11.5002 10.4329 11.7314C10.4528 11.7537 10.4772 11.7716 10.5045 11.7838C10.5319 11.7959 10.5614 11.8022 10.5914 11.8021C10.6213 11.8021 10.6508 11.7957 10.6781 11.7833C10.7054 11.771 10.7297 11.753 10.7495 11.7306C10.7835 11.6895 10.8014 11.6373 10.7998 11.584C10.7983 11.5306 10.7774 11.4796 10.741 11.4405C10.6431 11.3269 10.5707 11.1936 10.5289 11.0496C10.4871 10.9056 10.4768 10.7543 10.4987 10.6059C10.8886 9.42863 11.8554 9.56828 11.8955 9.57453C11.9437 9.58279 11.9933 9.57407 12.0359 9.54988C12.0784 9.52568 12.1113 9.48749 12.1288 9.44181C12.2223 9.19886 12.5805 9.06857 12.7101 9.03903C12.7154 9.03787 12.7207 9.03644 12.726 9.03485C13.2289 8.88132 13.6218 9.1896 13.6373 9.20204C13.6753 9.23316 13.7229 9.25012 13.772 9.25C13.8211 9.24989 13.8687 9.23271 13.9065 9.2014C14.6815 8.56039 15.8248 8.65283 16.4993 8.78497C16.265 8.86917 16.0234 8.93161 15.7777 8.97148C15.7255 8.97929 15.678 9.0058 15.6439 9.04607C15.6098 9.08635 15.5915 9.13764 15.5924 9.19039C15.5936 9.22031 15.6012 9.24963 15.6146 9.27641C15.628 9.30319 15.6469 9.32682 15.6701 9.34576C15.6933 9.36469 15.7202 9.37848 15.7492 9.38623C15.7781 9.39398 15.8083 9.39551 15.8379 9.39072C16.6261 9.26324 17.121 8.97778 17.2215 8.91563C18.725 8.27848 19.8958 8.98477 19.9445 9.01494C19.9745 9.03375 20.0087 9.04473 20.044 9.04688C20.0793 9.04904 20.1146 9.0423 20.1467 9.02728C20.9897 8.63313 21.6044 8.99678 21.629 9.01177C21.6605 9.03147 21.6965 9.04256 21.7336 9.0439C22.4145 9.06884 22.8954 9.24068 23.163 9.55463C23.3225 9.73952 23.4033 9.97952 23.388 10.2232C23.3816 10.2536 23.2972 10.5899 22.7151 10.5742C22.6855 10.5733 22.6561 10.5787 22.6287 10.5899C22.6014 10.6012 22.5767 10.6181 22.5563 10.6395C22.5359 10.6609 22.5203 10.6864 22.5104 10.7142C22.5004 10.7421 22.4965 10.7717 22.4988 10.8012C22.5043 10.8552 22.5296 10.9052 22.57 10.9416C22.6103 10.9779 22.6627 10.998 22.717 10.9979C22.7275 10.9979 22.7381 10.9979 22.7487 10.9979C23.3072 10.9979 23.6004 10.7381 23.7291 10.5035C24.1085 10.6094 24.3867 10.7961 24.5574 11.0605C24.8638 11.5349 24.734 12.119 24.7327 12.1241C24.7255 12.1546 24.7251 12.1863 24.7316 12.2169C24.7381 12.2476 24.7513 12.2764 24.7703 12.3013C24.8915 12.4583 24.9745 12.6414 25.0129 12.836C25.0542 13.0524 25.0189 13.2765 24.9131 13.4697C24.8925 13.5123 24.8812 13.5588 24.8802 13.6061C24.8792 13.6534 24.8885 13.7004 24.9073 13.7438C25.0238 13.9696 25.1784 14.3743 25.0467 14.7589C24.9429 15.0624 24.6733 15.312 24.2455 15.5009C24.2173 15.5133 24.1922 15.5318 24.1719 15.5549C24.1515 15.5781 24.1365 15.6054 24.1278 15.635C24.1146 15.6804 23.7849 16.7427 22.3061 16.4072C22.2676 16.3984 22.2274 16.4006 22.1901 16.4135C22.1527 16.4264 22.1198 16.4495 22.0948 16.4802C22.0875 16.4892 21.3446 17.3855 20.207 17.1776C20.178 17.1723 20.1483 17.1731 20.1196 17.18C20.091 17.1869 20.0641 17.1996 20.0407 17.2175C20.0173 17.2353 19.9979 17.2578 19.9837 17.2836C19.9694 17.3094 19.9608 17.3378 19.9581 17.3672C19.955 17.4215 19.9721 17.4751 20.0063 17.5175C20.0405 17.5599 20.0893 17.588 20.1431 17.5964C20.2792 17.6209 20.4173 17.6333 20.5556 17.6334C21.4747 17.6334 22.1097 17.0778 22.3347 16.8458C23.8195 17.126 24.3616 16.1671 24.4974 15.8516C24.9917 15.6159 25.3112 15.2949 25.4476 14.8963C25.617 14.4017 25.4585 13.9121 25.3153 13.6134C25.4447 13.3472 25.4846 13.0464 25.4288 12.7557C25.3847 12.5286 25.2943 12.3131 25.1634 12.1224C25.1968 11.8974 25.2365 11.3348 24.9163 10.8353C24.6821 10.4704 24.311 10.2192 23.8107 10.0869C23.7927 9.79356 23.6812 9.5137 23.4927 9.28828C23.1531 8.8837 22.584 8.65992 21.8003 8.62281C21.6097 8.52349 20.9365 8.23708 20.0681 8.59909C19.6121 8.37128 19.1122 8.24455 18.6027 8.22756C18.0932 8.21056 17.5861 8.3037 17.1158 8.50062C16.7197 8.37706 14.9732 7.90593 13.7621 8.77803C13.5906 8.67515 13.3997 8.6087 13.2013 8.58283C13.0029 8.55697 12.8014 8.57223 12.6092 8.62768C12.5332 8.64594 12.0421 8.7766 11.8062 9.14603C11.4401 9.14004 10.543 9.25313 10.1264 10.3862C9.86032 10.4969 9.6371 10.6906 9.48992 10.9383C9.27816 11.3 9.23898 11.7577 9.37314 12.2989C9.3229 12.5209 9.18514 13.3201 9.62318 13.9613C9.91965 14.3951 10.4084 14.6579 11.077 14.7434C11.2359 14.9582 11.6899 15.4422 12.5605 15.4422C12.7722 15.4407 12.983 15.4149 13.1888 15.3654C13.2121 15.8535 13.4119 16.6951 14.3685 17.4688C13.0202 17.6148 12.3955 16.7894 12.3673 16.7512C12.3355 16.707 12.2879 16.6767 12.2343 16.6667C12.1808 16.6567 12.1255 16.6677 12.0799 16.6974C11.8268 16.8638 11.5291 16.9492 11.2263 16.942C10.9492 16.94 10.6815 16.8415 10.4692 16.6635C9.92304 16.1999 10.2237 15.5214 10.2363 15.4935C10.2515 15.461 10.2581 15.4251 10.2556 15.3892C10.2531 15.3534 10.2415 15.3188 10.222 15.2887C10.2024 15.2586 10.1755 15.2339 10.1438 15.217C10.1121 15.2002 10.0766 15.1917 10.0407 15.1923H10.0178H10.0159C9.85113 15.1923 9.68835 15.1557 9.5394 15.0852C9.39045 15.0146 9.25905 14.9118 9.1547 14.7842C9.05098 14.6592 8.9764 14.5127 8.93636 14.3552C8.89632 14.1978 8.89184 14.0335 8.92324 13.8741C8.93762 13.8021 8.95753 13.7314 8.9828 13.6625Z" fill="#4D4C4C"/>
<path d="M18.3148 25.5613C18.3148 25.6174 18.3371 25.6713 18.3768 25.711C18.4165 25.7507 18.4704 25.773 18.5266 25.773H19.3661C19.3796 25.773 19.393 25.7716 19.4062 25.769C19.4111 25.7681 19.4156 25.7664 19.4202 25.7651C19.4284 25.7632 19.4364 25.7607 19.4443 25.7577C19.4496 25.7556 19.4549 25.7528 19.4598 25.7502C19.4666 25.7471 19.4731 25.7435 19.4795 25.7396C19.4848 25.7362 19.49 25.7322 19.4949 25.7283C19.4987 25.7253 19.5029 25.723 19.5066 25.7197C19.5081 25.7183 19.5092 25.7167 19.5107 25.7153C19.5162 25.7099 19.5213 25.7043 19.5262 25.6984C19.5304 25.6936 19.5347 25.6889 19.5384 25.6837C19.5422 25.6779 19.5457 25.6719 19.549 25.6658C19.5524 25.6599 19.5559 25.6541 19.5587 25.648C19.5614 25.6419 19.5633 25.6354 19.5655 25.629C19.5678 25.6226 19.5701 25.6158 19.5717 25.609C19.5733 25.6022 19.5738 25.5965 19.5747 25.5901C19.5759 25.5826 19.5766 25.575 19.577 25.5674C19.577 25.5653 19.5776 25.5634 19.5776 25.5613C19.5776 25.557 19.5766 25.5529 19.5763 25.5486C19.576 25.541 19.5752 25.5334 19.574 25.5258C19.5728 25.5193 19.5713 25.5129 19.5695 25.5065C19.5678 25.4997 19.5657 25.4929 19.5633 25.4864C19.5607 25.4798 19.5578 25.4734 19.5546 25.4672C19.5516 25.4613 19.5487 25.4554 19.5451 25.4497C19.541 25.4433 19.5365 25.4371 19.5317 25.4311C19.5291 25.4278 19.5272 25.424 19.5242 25.4208C18.4742 24.237 18.2007 21.888 18.1978 21.8645C18.191 21.8092 18.1626 21.7588 18.1189 21.7243C18.0751 21.6897 18.0195 21.6738 17.9641 21.68C17.9088 21.6862 17.858 21.714 17.823 21.7573C17.7879 21.8006 17.7714 21.856 17.7769 21.9115C17.7875 22.0045 18.0219 24.0224 18.9336 25.3496H18.5264C18.4702 25.3496 18.4164 25.3719 18.3768 25.4116C18.3371 25.4513 18.3148 25.5051 18.3148 25.5613Z" fill="#4D4C4C"/>
<path d="M15.5794 25.3847L15.5789 25.385C15.5673 25.3928 15.5566 25.4017 15.5467 25.4115C15.5424 25.4158 15.5392 25.4207 15.5353 25.4253C15.5301 25.431 15.5252 25.4371 15.5206 25.4434C15.5171 25.4491 15.514 25.4549 15.5111 25.4609C15.5033 25.4728 15.4977 25.4862 15.4948 25.5002C15.4929 25.5065 15.4904 25.5125 15.489 25.519C15.4863 25.5327 15.4849 25.5465 15.4849 25.5604V25.5611C15.4849 25.5645 15.4857 25.5677 15.4859 25.5712C15.4861 25.5816 15.4872 25.5919 15.489 25.6022C15.4903 25.6089 15.4928 25.6153 15.4948 25.6219C15.4987 25.6389 15.5057 25.655 15.5156 25.6695C15.5173 25.6724 15.5183 25.6755 15.5202 25.6783L15.5207 25.6789C15.5213 25.6799 15.5221 25.6808 15.5228 25.6817C15.5292 25.6909 15.5364 25.6996 15.5442 25.7077C15.546 25.7095 15.5478 25.7114 15.5495 25.713C15.5582 25.7215 15.5675 25.7292 15.5775 25.7361L15.5802 25.7377C15.5896 25.7438 15.5995 25.7491 15.6098 25.7536C15.6122 25.7546 15.6145 25.7558 15.617 25.7568C15.6279 25.7613 15.6392 25.7648 15.6507 25.7674C15.6534 25.768 15.656 25.7683 15.6587 25.7688C15.6711 25.7712 15.6836 25.7725 15.6962 25.7726H17.2044C17.2178 25.7726 17.2312 25.7712 17.2444 25.7686C17.2491 25.7677 17.2536 25.7661 17.2583 25.7649C17.2665 25.7628 17.2745 25.7603 17.2824 25.7573C17.2877 25.7553 17.2926 25.7526 17.2977 25.7501C17.3045 25.7469 17.3111 25.7434 17.3175 25.7395C17.3228 25.7362 17.3275 25.7323 17.3325 25.7286C17.3363 25.7257 17.3403 25.7233 17.344 25.7202C17.3477 25.7171 17.3506 25.7139 17.354 25.7108C17.9265 25.1951 17.8323 24.1519 17.828 24.1075C17.8218 24.0522 17.7942 24.0015 17.751 23.9665C17.7078 23.9314 17.6525 23.9148 17.5971 23.9202C17.5418 23.9255 17.4907 23.9524 17.4551 23.9951C17.4194 24.0378 17.4019 24.0928 17.4065 24.1482C17.4284 24.3802 17.4145 25.0218 17.1169 25.3494H16.2768C17.3562 24.2242 17.3382 22.4093 17.3367 22.3264V19.4842C17.3367 19.4281 17.3144 19.3742 17.2747 19.3345C17.235 19.2948 17.1811 19.2725 17.125 19.2725C17.0688 19.2725 17.015 19.2948 16.9752 19.3345C16.9355 19.3742 16.9132 19.4281 16.9132 19.4842V22.3303C16.9136 22.3517 16.9357 24.4839 15.5794 25.3847Z" fill="#4D4C4C"/>
<path d="M14.9212 9.02832C14.8651 9.02832 14.8112 9.05063 14.7715 9.09034C14.7318 9.13006 14.7095 9.18392 14.7095 9.24008C14.7095 9.29625 14.7318 9.35011 14.7715 9.38982C14.8112 9.42954 14.8651 9.45185 14.9212 9.45185H14.9219C14.978 9.45204 15.032 9.42991 15.0718 9.39033C15.1117 9.35075 15.1342 9.29696 15.1343 9.2408C15.1345 9.18464 15.1124 9.1307 15.0728 9.09085C15.0332 9.051 14.9795 9.02851 14.9233 9.02832H14.9212Z" fill="#4D4C4C"/>
<path d="M17.1249 18.5107C17.181 18.5107 17.2349 18.4884 17.2746 18.4487C17.3143 18.4089 17.3366 18.3551 17.3366 18.2989V18.2147C17.3366 18.1585 17.3143 18.1047 17.2746 18.065C17.2349 18.0252 17.181 18.0029 17.1249 18.0029C17.0687 18.0029 17.0148 18.0252 16.9751 18.065C16.9354 18.1047 16.9131 18.1585 16.9131 18.2147V18.2989C16.9131 18.3551 16.9354 18.4089 16.9751 18.4487C17.0148 18.4884 17.0687 18.5107 17.1249 18.5107Z" fill="#4D4C4C"/>
</svg>
