<svg width="34" height="34" viewBox="0 0 34 34" fill="none" xmlns="http://www.w3.org/2000/svg">
<circle cx="17" cy="17" r="16.5" stroke="#4D4C4C"/>
<path d="M21.2024 13.7276C20.149 13.7249 19.1195 14.0415 18.2497 14.6356C18.0956 14.7402 17.9475 14.8533 17.8061 14.9744C17.2274 15.4661 16.7628 16.0779 16.4446 16.7673C16.1263 17.4567 15.9621 18.2072 15.9634 18.9665C15.9634 19.1062 15.9687 19.2438 15.9795 19.3794C16.0081 19.7453 16.075 20.1073 16.1792 20.4593C16.2321 20.6382 16.2949 20.814 16.3671 20.986C16.8152 22.0598 17.6081 22.9539 18.6206 23.5273C19.6331 24.1006 20.8077 24.3205 21.9591 24.1524C23.1105 23.9843 24.1731 23.4376 24.9794 22.5986C25.7857 21.7597 26.2897 20.6762 26.412 19.5191C26.4316 19.3355 26.4414 19.1511 26.4413 18.9665C26.4413 17.5771 25.8894 16.2445 24.9069 15.262C23.9244 14.2795 22.5918 13.7276 21.2024 13.7276ZM25.8567 19.4597C25.742 20.544 25.2523 21.5543 24.4721 22.3161C23.692 23.0779 22.6703 23.5433 21.5835 23.6321C20.4967 23.7209 19.4131 23.4274 18.5196 22.8023C17.6262 22.1773 16.979 21.2599 16.6899 20.2085C16.611 19.9233 16.5598 19.6311 16.5369 19.336C16.5271 19.2117 16.5222 19.0874 16.5222 18.9665C16.5219 18.3048 16.6624 17.6505 16.9342 17.0472C17.206 16.4438 17.603 15.9052 18.0988 15.4669C18.2409 15.3416 18.3905 15.225 18.5465 15.1176C19.2488 14.6337 20.0699 14.3508 20.9212 14.2996C21.7724 14.2483 22.6216 14.4307 23.3768 14.8269C24.132 15.2231 24.7645 15.8182 25.2062 16.5477C25.6478 17.2773 25.8816 18.1137 25.8825 18.9665C25.8824 19.1312 25.8738 19.2959 25.8567 19.4597Z" fill="#4D4C4C"/>
<path d="M16.1798 20.4586C15.5463 20.7095 14.855 20.7771 14.1849 20.6538C13.5148 20.5304 12.8929 20.2211 12.3903 19.7612C11.8876 19.3012 11.5245 18.7091 11.3423 18.0526C11.1602 17.396 11.1663 16.7015 11.3601 16.0482C11.5539 15.395 11.9276 14.8095 12.4383 14.3586C12.9491 13.9076 13.5764 13.6094 14.2486 13.498C14.9207 13.3866 15.6107 13.4665 16.2396 13.7286C16.8686 13.9906 17.4111 14.4243 17.8053 14.9801C17.947 14.8589 18.0951 14.7453 18.2488 14.6399C17.7919 14.0022 17.1652 13.5055 16.44 13.2063C15.7148 12.9072 14.9201 12.8176 14.1465 12.9477C13.3729 13.0779 12.6513 13.4226 12.0639 13.9425C11.4764 14.4625 11.0467 15.1369 10.8236 15.889C10.6006 16.6412 10.5931 17.4408 10.802 18.197C11.0109 18.9532 11.4279 19.6355 12.0054 20.1664C12.583 20.6973 13.298 21.0555 14.069 21.2001C14.8401 21.3448 15.6363 21.2701 16.367 20.9846C16.2952 20.8128 16.2327 20.6372 16.1798 20.4586Z" fill="#4D4C4C"/>
<path d="M17.1717 22.3131C16.1716 22.7585 15.0649 22.9079 13.9826 22.7438C12.9002 22.5796 11.8876 22.1088 11.0646 21.387C10.2415 20.6651 9.64261 19.7226 9.33867 18.6709C9.03473 17.6192 9.03853 16.5025 9.34961 15.4529C9.66069 14.4033 10.266 13.4648 11.0939 12.7486C11.9219 12.0324 12.9377 11.5685 14.0211 11.4117C15.1045 11.2549 16.2102 11.4119 17.2072 11.864C18.2042 12.3162 19.0507 13.0445 19.6465 13.9629C19.8356 13.9054 20.0278 13.8588 20.2221 13.8232C19.5908 12.7819 18.6706 11.9464 17.5735 11.4182C16.4763 10.89 15.2493 10.6917 14.0416 10.8476C12.8339 11.0035 11.6975 11.5067 10.7704 12.2962C9.84328 13.0857 9.16541 14.1275 8.81913 15.2949C8.47284 16.4623 8.47306 17.7052 8.81974 18.8725C9.16642 20.0398 9.84465 21.0813 10.772 21.8705C11.6994 22.6597 12.836 23.1625 14.0438 23.318C15.2515 23.4734 16.4784 23.2748 17.5754 22.7462C17.4328 22.6095 17.298 22.4649 17.1717 22.3131Z" fill="#4D4C4C"/>
<path d="M21.2022 15.8232C20.3688 15.8242 19.5698 16.1556 18.9805 16.7449C18.3912 17.3342 18.0598 18.1332 18.0588 18.9666C18.0588 19.0484 18.0588 19.1336 18.0686 19.2167C18.1311 19.9977 18.483 20.7273 19.0553 21.2624C19.6277 21.7975 20.3792 22.0995 21.1627 22.1093C21.9462 22.1191 22.7051 21.8359 23.2906 21.3153C23.8762 20.7947 24.2462 20.0742 24.3281 19.2949C24.34 19.1859 24.3459 19.0763 24.3456 18.9666C24.3447 18.1332 24.0132 17.3342 23.4239 16.7449C22.8346 16.1556 22.0356 15.8242 21.2022 15.8232ZM23.7728 19.2356C23.7057 19.8763 23.4017 20.4689 22.9205 20.8972C22.4392 21.3255 21.8153 21.5586 21.1711 21.5508C20.5269 21.543 19.9088 21.2949 19.438 20.8551C18.9672 20.4153 18.6776 19.8156 18.626 19.1734C18.6205 19.1035 18.6177 19.0337 18.6177 18.9638C18.6177 18.6131 18.6892 18.2661 18.8277 17.9439C18.9661 17.6217 19.1687 17.3311 19.4231 17.0896C19.6775 16.8482 19.9784 16.6611 20.3074 16.5397C20.6364 16.4183 20.9866 16.3651 21.3369 16.3833C21.6871 16.4016 22.0299 16.491 22.3445 16.646C22.6591 16.801 22.9389 17.0184 23.1667 17.2849C23.3946 17.5515 23.5659 17.8617 23.6701 18.1965C23.7743 18.5314 23.8092 18.884 23.7728 19.2328V19.2356Z" fill="#4D4C4C"/>
<path d="M21.2022 15.8232C20.3688 15.8242 19.5698 16.1556 18.9805 16.7449C18.3912 17.3342 18.0598 18.1332 18.0588 18.9666C18.0588 19.0484 18.0588 19.1336 18.0686 19.2167C18.1311 19.9977 18.483 20.7273 19.0553 21.2624C19.6277 21.7975 20.3792 22.0995 21.1627 22.1093C21.9462 22.1191 22.7051 21.8359 23.2906 21.3153C23.8762 20.7947 24.2462 20.0742 24.3281 19.2949C24.34 19.1859 24.3459 19.0763 24.3456 18.9666C24.3447 18.1332 24.0132 17.3342 23.4239 16.7449C22.8346 16.1556 22.0356 15.8242 21.2022 15.8232ZM23.7728 19.2356C23.7057 19.8763 23.4017 20.4689 22.9205 20.8972C22.4392 21.3255 21.8153 21.5586 21.1711 21.5508C20.5269 21.543 19.9088 21.2949 19.438 20.8551C18.9672 20.4153 18.6776 19.8156 18.626 19.1734C18.6205 19.1035 18.6177 19.0337 18.6177 18.9638C18.6177 18.6131 18.6892 18.2661 18.8277 17.9439C18.9661 17.6217 19.1687 17.3311 19.4231 17.0896C19.6775 16.8482 19.9784 16.6611 20.3074 16.5397C20.6364 16.4183 20.9866 16.3651 21.3369 16.3833C21.6871 16.4016 22.0299 16.491 22.3445 16.646C22.6591 16.801 22.9389 17.0184 23.1667 17.2849C23.3946 17.5515 23.5659 17.8617 23.6701 18.1965C23.7743 18.5314 23.8092 18.884 23.7728 19.2328V19.2356Z" fill="#4D4C4C"/>
<path d="M14.8456 20.7137C14.2223 20.714 13.6095 20.5539 13.066 20.2488C12.5225 19.9437 12.0667 19.504 11.7423 18.9718C11.418 18.4396 11.236 17.8329 11.2139 17.21C11.1919 16.5871 11.3304 15.9691 11.6163 15.4152C11.9022 14.8614 12.3258 14.3905 12.8463 14.0477C13.3668 13.7049 13.9668 13.5019 14.5885 13.458C15.2102 13.4142 15.8328 13.5311 16.3962 13.7974C16.9597 14.0637 17.4452 14.4706 17.806 14.9788C17.9473 14.8565 18.0954 14.7422 18.2495 14.6365C17.7925 13.9991 17.1657 13.5027 16.4405 13.2039C15.7153 12.905 14.9208 12.8156 14.1474 12.9459C13.3739 13.0762 12.6525 13.4209 12.0653 13.9408C11.478 14.4608 11.0484 15.1351 10.8254 15.887C10.6023 16.639 10.5948 17.4385 10.8036 18.1946C11.0124 18.9506 11.4291 19.6329 12.0065 20.1638C12.5838 20.6948 13.2985 21.0531 14.0694 21.1979C14.8402 21.3428 15.6363 21.2685 16.367 20.9834C16.2947 20.8114 16.232 20.6356 16.1791 20.4567C15.7548 20.6258 15.3023 20.7131 14.8456 20.7137Z" fill="#4D4C4C"/>
</svg>
