<svg width="29" height="29" viewBox="0 0 29 29" fill="none" xmlns="http://www.w3.org/2000/svg">
<path d="M24.9766 4.46204C22.2395 1.60508 18.4524 -0.00725542 14.4958 2.45462e-05C6.50011 -0.0100461 0.0100821 6.46361 1.14787e-05 14.4594C-0.00496317 18.413 1.60719 22.1967 4.46203 24.9318C4.47034 24.9401 4.47343 24.9525 4.48168 24.9598C4.56552 25.0405 4.65664 25.1089 4.74158 25.1865C4.97454 25.3936 5.20749 25.6079 5.45289 25.8078C5.58435 25.9113 5.72104 26.0148 5.85565 26.1101C6.08758 26.283 6.31951 26.4559 6.56175 26.6154C6.7264 26.7189 6.8962 26.8224 7.06492 26.926C7.28853 27.0606 7.51118 27.1962 7.74208 27.3194C7.93779 27.4229 8.13756 27.5119 8.33636 27.6062C8.55379 27.7097 8.76813 27.8132 8.99071 27.9064C9.2133 27.9996 9.43697 28.0721 9.66265 28.1528C9.88833 28.2336 10.083 28.3081 10.2994 28.3744C10.5438 28.4479 10.7943 28.5048 11.0428 28.5659C11.2499 28.6166 11.4507 28.6746 11.664 28.7161C11.9498 28.773 12.2397 28.8092 12.5296 28.8486C12.7088 28.8735 12.8837 28.9087 13.0649 28.9263C13.5391 28.9729 14.0174 28.9988 14.4999 28.9988C14.9824 28.9988 15.4607 28.9729 15.9349 28.9263C16.1161 28.9087 16.2911 28.8735 16.4702 28.8486C16.7601 28.8092 17.0499 28.773 17.3357 28.7161C17.5428 28.6746 17.7499 28.6125 17.957 28.5659C18.2055 28.5048 18.456 28.4478 18.7004 28.3744C18.9168 28.3081 19.1259 28.2274 19.3371 28.1528C19.5484 28.0783 19.7885 27.9975 20.0091 27.9064C20.2296 27.8153 20.446 27.7086 20.6634 27.6062C20.8622 27.5119 21.0621 27.4229 21.2577 27.3194C21.4886 27.1962 21.7112 27.0605 21.9349 26.926C22.1036 26.8224 22.2734 26.7282 22.438 26.6154C22.6803 26.4559 22.9123 26.283 23.1441 26.1101C23.2787 26.0065 23.4154 25.9133 23.5469 25.8078C23.7923 25.611 24.0252 25.4019 24.2582 25.1865C24.3431 25.1089 24.4342 25.0406 24.5181 24.9598C24.5263 24.9525 24.5295 24.9401 24.5378 24.9318C30.3116 19.4004 30.508 10.2357 24.9766 4.46204ZM22.6495 23.8478C22.461 24.0134 22.2663 24.1708 22.0697 24.323C21.9537 24.4121 21.8377 24.5 21.7186 24.585C21.5312 24.7206 21.3408 24.849 21.1471 24.9722C21.0063 25.0623 20.8624 25.1492 20.7174 25.2342C20.5352 25.3377 20.3498 25.4412 20.1624 25.5448C19.9968 25.6296 19.828 25.7094 19.6582 25.7881C19.4885 25.8668 19.301 25.9506 19.1178 26.0242C18.9345 26.0977 18.7399 26.167 18.5483 26.2312C18.3733 26.2913 18.1984 26.3534 18.0213 26.4062C17.8142 26.4683 17.5978 26.519 17.3835 26.5708C17.2157 26.6101 17.0501 26.6547 16.8803 26.6879C16.6349 26.7355 16.3844 26.7686 16.1328 26.8028C15.9899 26.8214 15.8481 26.8473 15.7041 26.8618C15.3065 26.9001 14.9037 26.9229 14.4969 26.9229C14.09 26.9229 13.6872 26.9001 13.2896 26.8618C13.1457 26.8473 13.0039 26.8214 12.8609 26.8028C12.6093 26.7686 12.3588 26.7355 12.1134 26.6879C11.9436 26.6547 11.7779 26.6102 11.6102 26.5708C11.3959 26.5191 11.1826 26.4673 10.9724 26.4062C10.7954 26.3534 10.6204 26.2913 10.4454 26.2312C10.2539 26.165 10.0623 26.0976 9.87596 26.0242C9.68959 25.9506 9.5136 25.8699 9.33548 25.7881C9.15736 25.7063 8.9969 25.6297 8.83128 25.5448C8.64388 25.4475 8.45855 25.3449 8.27631 25.2342C8.13137 25.1493 7.98741 25.0623 7.8466 24.9722C7.65302 24.849 7.46247 24.7206 7.27507 24.585C7.15598 24.5001 7.04005 24.4121 6.92405 24.323C6.72731 24.1708 6.53269 24.0124 6.34426 23.8478C6.2987 23.8136 6.25727 23.7701 6.2128 23.7307C6.25909 20.2086 8.52176 17.0986 11.8587 15.9706C13.5272 16.7643 15.4644 16.7643 17.1329 15.9706C20.4698 17.0986 22.7325 20.2086 22.7789 23.7307C22.7354 23.7701 22.6939 23.8095 22.6495 23.8478ZM10.8854 8.3015C12.0064 6.30776 14.5314 5.60032 16.5252 6.72138C18.5189 7.84243 19.2263 10.3674 18.1053 12.3612C17.7333 13.0227 17.1867 13.5693 16.5252 13.9413C16.52 13.9413 16.5138 13.9413 16.5076 13.9475C16.233 14.1003 15.9428 14.2232 15.642 14.314C15.5882 14.3296 15.5384 14.3502 15.4815 14.3637C15.378 14.3906 15.2693 14.4093 15.1626 14.4279C14.9618 14.463 14.7586 14.4834 14.5549 14.489H14.4368C14.233 14.4834 14.0298 14.463 13.829 14.4279C13.7255 14.4093 13.6157 14.3906 13.5102 14.3637C13.4553 14.3502 13.4066 14.3296 13.3497 14.314C13.0489 14.2232 12.7587 14.1004 12.4841 13.9475L12.4655 13.9413C10.4718 12.8202 9.76433 10.2952 10.8854 8.3015ZM24.6156 21.6777C23.9512 18.5786 21.9105 15.9514 19.0722 14.5409C21.3924 12.0134 21.2243 8.08364 18.6969 5.76346C16.1695 3.44327 12.2397 3.61131 9.91951 6.13874C7.73832 8.5148 7.73832 12.1649 9.91951 14.5409C7.08124 15.9514 5.04054 18.5786 4.37612 21.6777C0.40587 16.0852 1.72088 8.33316 7.31329 4.36291C12.9057 0.392658 20.6578 1.70766 24.628 7.30008C26.1205 9.40235 26.9216 11.917 26.9204 14.4952C26.9204 17.0712 26.1145 19.5826 24.6156 21.6777Z" fill="#4D4C4C"/>
</svg>
