<svg width="29" height="26" viewBox="0 0 29 26" fill="none" xmlns="http://www.w3.org/2000/svg">
<path d="M26.4512 3.09766H2.54883C1.14516 3.09766 0 4.12323 0 5.38281V20.6172C0 21.8725 1.14006 22.9023 2.54883 22.9023H26.4512C27.8513 22.9023 29 21.8802 29 20.6172V5.38281C29 4.1275 27.8599 3.09766 26.4512 3.09766ZM26.0992 4.62109L14.554 14.972L2.90901 4.62109H26.0992ZM1.69922 20.3017V5.691L9.8826 12.9649L1.69922 20.3017ZM2.90074 21.3789L11.0893 14.0375L13.9585 16.5878C14.2907 16.883 14.8266 16.8821 15.1574 16.5855L17.9551 14.0772L26.0993 21.3789H2.90074ZM27.3008 20.3017L19.1566 13L27.3008 5.69827V20.3017Z" fill="#F7793F"/>
</svg>
