<svg width="34" height="34" viewBox="0 0 34 34" fill="none" xmlns="http://www.w3.org/2000/svg">
<circle cx="17" cy="17" r="16.5" stroke="#4D4C4C"/>
<path d="M12.0779 15.0312C12.0779 17.3706 13.7168 19.3519 15.9451 19.8394V24.0249L13.3269 25.3339C13.181 25.4068 13.1046 25.5705 13.1419 25.7292C13.1794 25.8879 13.3211 26 13.4841 26H20.5154C20.6784 26 20.8201 25.8879 20.8575 25.7292C20.8949 25.5705 20.8184 25.407 20.6725 25.3339L18.0544 24.0249V19.8394C20.3448 19.3381 21.9631 17.2799 21.9212 14.9542C21.9065 14.0518 21.7659 13.9358 20.5064 8.27328C20.47 8.11343 20.3278 8 20.1638 8H18.4412C18.247 8 18.0896 8.15738 18.0896 8.35156C18.0896 8.54574 18.247 8.70312 18.4412 8.70312H19.8835C19.8835 8.70312 21.1491 14.2621 21.1634 14.3501C20.4242 13.9867 19.537 13.6478 18.768 13.6251C17.956 13.6007 17.2134 14.0088 16.4959 14.4031C15.8158 14.7768 15.1737 15.1297 14.5951 15.0358C14.1172 14.9583 13.5343 14.6091 12.9016 14.0232L14.1161 8.70312H15.6287C15.8228 8.70312 15.9802 8.54574 15.9802 8.35156C15.9802 8.15738 15.8228 8 15.6287 8H13.8357C13.6717 8 13.5294 8.11343 13.4929 8.27328C12.0901 14.4226 12.0779 14.2335 12.0779 15.0312H12.0779ZM19.0262 25.2968H14.9733L16.4539 24.5566C16.5729 24.497 16.6482 24.3752 16.6482 24.2422V19.9402C16.7651 19.9484 16.8825 19.9531 16.9997 19.9531C17.117 19.9531 17.2344 19.9484 17.3513 19.9402V24.2422C17.3513 24.3754 17.4266 24.497 17.5456 24.5566L19.0262 25.2968ZM16.8345 15.0193C17.4695 14.6705 18.126 14.3096 18.7473 14.328C19.3655 14.3461 20.2369 14.6433 21.216 15.1676C21.1434 17.3767 19.3091 19.2687 16.9646 19.2496C14.5652 19.2302 12.6876 17.1966 12.785 14.8545C13.3925 15.3516 13.9616 15.6454 14.4825 15.7298C15.3062 15.8636 16.0961 15.4251 16.8345 15.0193Z" fill="#4D4C4C"/>
<path d="M17.3867 8.35156C17.3867 8.54575 17.2293 8.70312 17.0352 8.70312C16.841 8.70312 16.6836 8.54575 16.6836 8.35156C16.6836 8.15738 16.841 8 17.0352 8C17.2293 8 17.3867 8.15738 17.3867 8.35156Z" fill="#4D4C4C"/>
</svg>
