<svg width="31" height="30" viewBox="0 0 31 30" fill="none" xmlns="http://www.w3.org/2000/svg">
<path d="M15.3903 0.299805C9.27492 0.299805 5.198 4.2998 5.198 10.0998C5.198 17.8998 12.5365 27.5998 14.473 29.4998C14.5749 29.5998 14.7788 29.6998 14.9826 29.6998C15.1865 29.6998 15.3903 29.5998 15.4922 29.3998C16.5115 28.2998 25.2768 18.2998 25.2768 10.0998C25.3788 3.2998 20.3845 0.299805 15.3903 0.299805ZM14.9826 27.7998C12.6384 25.0998 6.72684 16.6998 6.72684 10.0998C6.72684 4.9998 10.0903 1.7998 15.3903 1.7998C19.2634 1.7998 23.8499 3.9998 23.8499 10.0998C23.8499 15.9998 18.5499 23.7998 14.9826 27.7998ZM15.2884 6.0998C13.0461 6.0998 11.2115 7.89981 11.2115 10.0998C11.2115 12.2998 13.0461 14.0998 15.2884 14.0998C17.5307 14.0998 19.3653 12.2998 19.3653 10.0998C19.3653 7.89981 17.5307 6.0998 15.2884 6.0998ZM15.2884 12.5998C13.8615 12.5998 12.7403 11.4998 12.7403 10.0998C12.7403 8.69981 13.8615 7.5998 15.2884 7.5998C16.7153 7.5998 17.8365 8.69981 17.8365 10.0998C17.8365 11.4998 16.7153 12.5998 15.2884 12.5998Z" fill="#F7793F"/>
</svg>
