<svg width="34" height="34" viewBox="0 0 34 34" fill="none" xmlns="http://www.w3.org/2000/svg">
<circle cx="17" cy="17" r="16.5" stroke="#4D4C4C"/>
<path d="M25.5133 12.5291H24.6273V13.1198H25.5133C25.6762 13.1198 25.8086 13.2523 25.8086 13.4151V21.3892C25.8086 22.2035 25.1462 22.8659 24.3319 22.8659H18.4252C17.9366 22.8659 17.5392 23.2633 17.5392 23.7519V23.8996H16.3579V23.7519C16.3579 23.2633 15.9605 22.8659 15.4719 22.8659H9.56515C8.75091 22.8659 8.08847 22.2035 8.08847 21.3892V13.4151C8.08847 13.2523 8.22093 13.1198 8.38381 13.1198H9.26982V12.5291H8.38381C7.89518 12.5291 7.4978 12.9265 7.4978 13.4151V21.3892C7.4978 22.5292 8.42516 23.4566 9.56515 23.4566H15.4719C15.6347 23.4566 15.7672 23.589 15.7672 23.7519V23.8996C15.7672 24.2253 16.0321 24.4902 16.3579 24.4902H17.5392C17.865 24.4902 18.1299 24.2253 18.1299 23.8996V23.7519C18.1299 23.589 18.2623 23.4566 18.4252 23.4566H24.3319C25.4719 23.4566 26.3993 22.5292 26.3993 21.3892V13.4151C26.3993 12.9265 26.0019 12.5291 25.5133 12.5291Z" fill="#4D4C4C"/>
<path d="M15.472 12.5294H11.928V13.1201H15.472V12.5294Z" fill="#4D4C4C"/>
<path d="M15.472 13.8585H11.928V14.4492H15.472V13.8585Z" fill="#4D4C4C"/>
<path d="M15.472 15.1876H11.928V15.7783H15.472V15.1876Z" fill="#4D4C4C"/>
<path d="M21.9693 12.5294H18.4253V13.1201H21.9693V12.5294Z" fill="#4D4C4C"/>
<path d="M21.9693 13.8585H18.4253V14.4492H21.9693V13.8585Z" fill="#4D4C4C"/>
<path d="M21.9693 15.1876H18.4253V15.7783H21.9693V15.1876Z" fill="#4D4C4C"/>
<path d="M24.3321 20.5035C24.3321 20.9922 23.9676 21.3895 23.5199 21.3895H18.13C17.9109 21.3895 17.7034 21.4389 17.5162 21.5249C17.8075 21.0877 18.3047 20.7989 18.8684 20.7989H22.4124C23.0637 20.7989 23.5937 20.2689 23.5937 19.6175V11.9388H23.8891C24.1292 11.9388 24.3321 12.2093 24.3321 12.5295V20.5035ZM10.3775 21.3895C9.92972 21.3895 9.56528 20.9922 9.56528 20.5035V12.5295C9.56528 12.2093 9.76818 11.9388 10.0083 11.9388H10.3036V19.6175C10.3036 20.2689 10.8336 20.7989 11.485 20.7989H15.029C15.5926 20.7989 16.0897 21.0877 16.3812 21.5249C16.1939 21.4389 15.9865 21.3895 15.7673 21.3895H10.3775ZM10.8943 11.2005C10.8943 10.8747 11.1592 10.6098 11.485 10.6098H15.029C15.9246 10.6098 16.6533 11.3385 16.6533 12.2341V20.9189C16.2486 20.482 15.6702 20.2082 15.029 20.2082H11.485C11.1592 20.2082 10.8943 19.9433 10.8943 19.6175V11.2005ZM18.8684 10.6098H22.4124C22.7381 10.6098 23.0031 10.8747 23.0031 11.2005V19.6175C23.0031 19.9433 22.7381 20.2082 22.4124 20.2082H18.8684C18.2263 20.2082 17.6489 20.4845 17.244 20.9223V12.2341C17.244 11.3385 17.9727 10.6098 18.8684 10.6098ZM23.8891 11.3481H23.5937V11.2005C23.5937 10.5491 23.0637 10.0191 22.4124 10.0191H18.8684C18.0476 10.0191 17.3313 10.4688 16.9487 11.1337C16.5661 10.4688 15.8497 10.0191 15.029 10.0191H11.485C10.8336 10.0191 10.3036 10.5491 10.3036 11.2005V11.3481H10.0083C9.43843 11.3481 8.97461 11.8781 8.97461 12.5295V20.5035C8.97461 21.3178 9.60397 21.9802 10.3775 21.9802H15.7673C16.256 21.9802 16.6533 22.3776 16.6533 22.8662H17.244C17.244 22.3776 17.6414 21.9802 18.13 21.9802H23.5199C24.2934 21.9802 24.9227 21.3178 24.9227 20.5035V12.5295C24.9227 11.8781 24.4589 11.3481 23.8891 11.3481Z" fill="#4D4C4C"/>
<path d="M15.472 17.9928C15.472 18.1559 15.3398 18.2881 15.1767 18.2881H12.2233C12.0601 18.2881 11.928 18.1559 11.928 17.9928V16.8114C11.928 16.6482 12.0601 16.5161 12.2233 16.5161H15.1767C15.3398 16.5161 15.472 16.6482 15.472 16.8114V17.9928Z" fill="#4D4C4C"/>
<path d="M21.9693 17.9928C21.9693 18.1559 21.8372 18.2881 21.674 18.2881H18.7206C18.5575 18.2881 18.4253 18.1559 18.4253 17.9928V16.8114C18.4253 16.6482 18.5575 16.5161 18.7206 16.5161H21.674C21.8372 16.5161 21.9693 16.6482 21.9693 16.8114V17.9928Z" fill="#4D4C4C"/>
</svg>
