<svg width="17" height="16" viewBox="0 0 17 16" fill="none" xmlns="http://www.w3.org/2000/svg">
<g clip-path="url(#clip0)">
<path d="M7.21423 0C3.34734 0 0.201172 3.16097 0.201172 7.04606C0.201172 10.9314 3.34734 14.0921 7.21423 14.0921C11.0813 14.0921 14.2273 10.9314 14.2273 7.04606C14.2273 3.16097 11.0813 0 7.21423 0ZM7.21423 12.7913C4.06116 12.7913 1.49589 10.214 1.49589 7.04609C1.49589 3.87819 4.06116 1.30081 7.21423 1.30081C10.3673 1.30081 12.9326 3.87816 12.9326 7.04606C12.9326 10.214 10.3673 12.7913 7.21423 12.7913Z" fill="white"/>
<path d="M15.9365 14.8893L12.2249 11.1603C11.972 10.9062 11.5625 10.9062 11.3096 11.1603C11.0566 11.4142 11.0566 11.8261 11.3096 12.08L15.0211 15.809C15.1475 15.936 15.3131 15.9996 15.4788 15.9996C15.6443 15.9996 15.81 15.936 15.9365 15.809C16.1894 15.5551 16.1894 15.1432 15.9365 14.8893Z" fill="white"/>
</g>
<defs>
<clipPath id="clip0">
<rect width="15.9251" height="16" fill="white" transform="translate(0.201172)"/>
</clipPath>
</defs>
</svg>
