<svg width="30" height="30" viewBox="0 0 30 30" fill="none" xmlns="http://www.w3.org/2000/svg">
<rect width="30" height="30" rx="5" fill="#4D4C4C"/>
<path d="M21.5958 16.69C21.2725 16.2817 21.365 16.1 21.5958 15.735C21.6 15.7308 24.2692 12.0425 24.5442 10.7917L24.5458 10.7908C24.6825 10.335 24.5458 10 23.885 10H21.6983C21.1417 10 20.885 10.2875 20.7475 10.6092C20.7475 10.6092 19.6342 13.2742 18.0592 15.0017C17.5508 15.5008 17.3158 15.6608 17.0383 15.6608C16.9017 15.6608 16.6892 15.5008 16.6892 15.045V10.7908C16.6892 10.2442 16.5333 10 16.0725 10H12.6342C12.285 10 12.0775 10.255 12.0775 10.4925C12.0775 11.0108 12.865 11.13 12.9467 12.5883V15.7525C12.9467 16.4458 12.8208 16.5733 12.5417 16.5733C11.7983 16.5733 9.99417 13.8975 8.925 10.835C8.70917 10.2408 8.49833 10.0008 7.9375 10.0008H5.75C5.12583 10.0008 5 10.2883 5 10.61C5 11.1783 5.74333 14.0042 8.45667 17.7375C10.265 20.2858 12.8117 21.6667 15.1283 21.6667C16.5208 21.6667 16.6908 21.36 16.6908 20.8325C16.6908 18.3975 16.565 18.1675 17.2625 18.1675C17.5858 18.1675 18.1425 18.3275 19.4425 19.5567C20.9283 21.0142 21.1725 21.6667 22.0042 21.6667H24.1908C24.8142 21.6667 25.13 21.36 24.9483 20.755C24.5325 19.4825 21.7225 16.865 21.5958 16.69Z" fill="white"/>
</svg>
